<svg width="16" height="16" viewBox="0 0 16 16" fill="none" xmlns="http://www.w3.org/2000/svg">
<path fill-rule="evenodd" clip-rule="evenodd" d="M9 9H8C8.55 9 9 8.55 9 8V7C9 6.45 8.55 6 8 6H7C6.45 6 6 6.45 6 7V8C6 8.55 6.45 9 7 9H6C5.45 9 5 9.45 5 10V12H6V15C6 15.55 6.45 16 7 16H8C8.55 16 9 15.55 9 15V12H10V10C10 9.45 9.55 9 9 9ZM7 7H8V8H7V7ZM9 11H8V15H7V11H6V10H9V11ZM11.09 7.5C11.09 5.52 9.48 3.91 7.5 3.91C5.52 3.91 3.91 5.52 3.91 7.5C3.91 7.78 3.94 8.05 4 8.31V10.29C3.39 9.52 3 8.56 3 7.49C3 5.01 5.02 2.99 7.5 2.99C9.98 2.99 12 5.01 12 7.49C12 8.55 11.61 9.52 11 10.29V8.31C11.06 8.04 11.09 7.78 11.09 7.5ZM15 7.5C15 10.38 13.37 12.88 11 14.13V13.08C12.86 11.92 14.09 9.86 14.09 7.5C14.09 3.86 11.14 0.91 7.5 0.91C3.86 0.91 0.91 3.86 0.91 7.5C0.91 9.86 2.14 11.92 4 13.08V14.13C1.63 12.88 0 10.38 0 7.5C0 3.36 3.36 0 7.5 0C11.64 0 15 3.36 15 7.5Z" fill="#1B1F23"/>
</svg>
