<svg width="14" height="16" viewBox="0 0 14 16" fill="none" xmlns="http://www.w3.org/2000/svg">
<path fill-rule="evenodd" clip-rule="evenodd" d="M3 5C3 4.45 3.45 4 4 4C4.55 4 5 4.45 5 5C5 5.55 4.55 6 4 6C3.45 6 3 5.55 3 5ZM11 5C11 4.45 10.55 4 10 4C9.45 4 9 4.45 9 5C9 5.55 9.45 6 10 6C10.55 6 11 5.55 11 5ZM11 11C11 10.45 10.55 10 10 10C9.45 10 9 10.45 9 11C9 11.55 9.45 12 10 12C10.55 12 11 11.55 11 11ZM13 1H5V3.17C5.36 3.36 5.64 3.64 5.83 4H8.17C8.59 3.22 9.5 2.72 10.51 2.95C11.26 3.14 11.87 3.75 12.04 4.5C12.35 5.88 11.32 7.09 9.99 7.09C9.19 7.09 8.51 6.65 8.16 6H5.83C5.41 6.8 4.5 7.28 3.49 7.03C2.76 6.86 2.15 6.25 1.97 5.51C1.72 4.49 2.2 3.59 3 3.17V1H1C0.45 1 0 1.45 0 2V14C0 14.55 0.45 15 1 15L6 10H8.17C8.59 9.22 9.5 8.72 10.51 8.95C11.26 9.14 11.87 9.75 12.04 10.5C12.35 11.88 11.32 13.09 9.99 13.09C9.19 13.09 8.51 12.65 8.16 12H6.99L4 15H13C13.55 15 14 14.55 14 14V2C14 1.45 13.55 1 13 1Z" fill="#1B1F23"/>
</svg>
