<svg width="16" height="14" viewBox="0 0 16 14" fill="none" xmlns="http://www.w3.org/2000/svg">
<path fill-rule="evenodd" clip-rule="evenodd" d="M14.8222 0.853553C15.0175 0.658291 15.0175 0.341709 14.8222 0.146447C14.627 -0.0488155 14.3104 -0.0488155 14.1151 0.146447L12.005 2.25653C10.8901 1.482 9.56509 0.925049 8.06 0.925049C3 0.925049 0 6.92505 0 6.92505C0 6.92505 1.16157 9.24818 3.25823 11.0033L1.19366 13.0679C0.998395 13.2632 0.998395 13.5798 1.19366 13.775C1.38892 13.9703 1.7055 13.9703 1.90076 13.775L14.8222 0.853553ZM4.85879 9.40277L6.29159 7.96998C6.10643 7.66645 6 7.3089 6 6.92505C6 5.81505 6.89 4.92505 8 4.92505C8.38385 4.92505 8.7414 5.03148 9.04493 5.21664L10.4777 3.78384C9.79783 3.24654 8.93821 2.92505 8 2.92505C5.8 2.92505 4 4.72505 4 6.92505C4 7.86326 4.32149 8.72288 4.85879 9.40277ZM11.8644 5.88906L13.8567 3.8968C15.2406 5.40616 16 6.92505 16 6.92505C16 6.92505 13 12.925 8.06 12.925C7.09599 12.925 6.20675 12.7073 5.39878 12.3547L6.96401 10.7895C7.29473 10.8779 7.64207 10.925 8 10.925C10.22 10.925 12 9.14505 12 6.92505C12 6.56712 11.9529 6.21978 11.8644 5.88906ZM9.33847 8.41501L9.48996 8.26352C9.44222 8.31669 9.39164 8.36726 9.33847 8.41501Z" fill="#1B1F23"/>
</svg>
