<svg width="12" height="16" viewBox="0 0 12 16" fill="none" xmlns="http://www.w3.org/2000/svg">
<path fill-rule="evenodd" clip-rule="evenodd" d="M8.5 1H1C0.447715 1 0 1.44772 0 2V14C0 14.5523 0.447715 15 1 15H11C11.5523 15 12 14.5523 12 14V4.5L8.5 1ZM1 2H5C4.88021 2.03683 4.77293 2.10604 4.69 2.2C4.57597 2.33544 4.49698 2.49685 4.46 2.67C4.34407 3.15094 4.3136 3.64851 4.37 4.14C4.4297 4.7489 4.54348 5.35128 4.71 5.94C4.39914 6.8502 4.02833 7.73882 3.6 8.6C3.1 9.6 2.8 10.26 2.69 10.44C2.4549 10.5278 2.22458 10.628 2 10.74C1.63798 10.9048 1.30127 11.1203 1 11.38V2ZM5.41997 6.8C5.65612 7.57228 6.05509 8.28496 6.58997 8.89C6.86507 9.12723 7.1846 9.30739 7.52997 9.42C6.88997 9.51 6.29997 9.62 5.71997 9.75C5.10221 9.8993 4.49704 10.0966 3.90997 10.34C3.3229 10.5834 4.12997 9.9 4.51997 9.09C4.88536 8.34936 5.18971 7.58015 5.42997 6.79L5.41997 6.8ZM11 14H1.50002C1.44354 14.0065 1.3865 14.0065 1.33002 14C1.60063 13.9043 1.84898 13.7546 2.06002 13.56C2.76702 12.8584 3.3668 12.0565 3.84002 11.18C4.15002 11.05 4.42002 10.95 4.65002 10.87L5.07002 10.73C5.52002 10.6 6.01002 10.5 6.51002 10.4C7.01002 10.3 7.51002 10.24 7.99002 10.2C8.43727 10.4163 8.90232 10.5936 9.38002 10.73C9.78291 10.8408 10.1943 10.9177 10.61 10.96C10.75 10.96 10.88 10.96 10.99 10.96V14H11ZM11 9.14C10.7958 9.02691 10.5816 8.93316 10.36 8.86C10.1138 8.80091 9.86277 8.7641 9.60998 8.75C9.19878 8.75303 8.78811 8.77974 8.37998 8.83C8.00734 8.68542 7.66735 8.46782 7.37998 8.19C6.7828 7.51841 6.34219 6.72259 6.08998 5.86C6.20096 5.19851 6.26778 4.53037 6.28998 3.86C6.30922 3.61037 6.30922 3.35963 6.28998 3.11C6.3592 2.80152 6.28573 2.47827 6.08998 2.23C5.92717 2.07233 5.70636 1.98907 5.47998 2H7.99998L11 5V9.13V9.14Z" fill="#1B1F23"/>
</svg>
