<svg width="12" height="16" viewBox="0 0 12 16" fill="none" xmlns="http://www.w3.org/2000/svg">
<path fill-rule="evenodd" clip-rule="evenodd" d="M10 7C9.27 7 8.62 7.41 8.27 8.02V8C7.22 7.98 6 7.64 5.14 6.98C4.39 6.4 3.64 5.37 3.25 4.54C3.7 4.18 4 3.62 4 2.99C4 1.88 3.11 0.989998 2 0.989998C0.89 0.989998 0 1.89 0 3C0 3.73 0.41 4.38 1 4.72V11.28C0.41 11.63 0 12.27 0 13C0 14.11 0.89 15 2 15C3.11 15 4 14.11 4 13C4 12.27 3.59 11.62 3 11.28V7.67C3.67 8.37 4.44 8.94 5.3 9.36C6.16 9.78 7.33 9.99 8.27 10V9.98C8.63 10.59 9.27 11 10 11C11.11 11 12 10.11 12 9C12 7.89 11.11 7 10 7ZM3.19999 13C3.19999 13.66 2.64999 14.2 1.99999 14.2C1.34999 14.2 0.799988 13.65 0.799988 13C0.799988 12.35 1.34999 11.8 1.99999 11.8C2.64999 11.8 3.19999 12.35 3.19999 13ZM1.99999 4.2C1.33999 4.2 0.799988 3.65 0.799988 3C0.799988 2.35 1.34999 1.8 1.99999 1.8C2.64999 1.8 3.19999 2.35 3.19999 3C3.19999 3.65 2.64999 4.2 1.99999 4.2ZM9.99999 10.2C9.33999 10.2 8.79999 9.65 8.79999 9C8.79999 8.35 9.34999 7.8 9.99999 7.8C10.65 7.8 11.2 8.35 11.2 9C11.2 9.65 10.65 10.2 9.99999 10.2Z" fill="#1B1F23"/>
</svg>
