<svg width="14" height="16" viewBox="0 0 14 16" fill="none" xmlns="http://www.w3.org/2000/svg">
<path fill-rule="evenodd" clip-rule="evenodd" d="M5 12H4C3.73 11.98 3.52 11.89 3.31 11.69C3.1 11.49 3.01 11.27 3 11V4.72C3.59 4.38 4 3.74 4 3C4 1.89 3.11 1 2 1C0.89 1 0 1.89 0 3C0 3.73 0.41 4.38 1 4.72C1 6.45 1 11 1 11C1.03 11.78 1.34 12.47 1.94 13.06C2.54 13.65 3.22 13.97 4 14C4 14 5.02 14 5 14V16L8 13L5 10V12ZM1.99999 1.8C2.65999 1.8 3.19999 2.35 3.19999 3C3.19999 3.65 2.64999 4.2 1.99999 4.2C1.34999 4.2 0.799988 3.65 0.799988 3C0.799988 2.35 1.34999 1.8 1.99999 1.8ZM13 11.28C13 9.55 13 5 13 5C12.97 4.22 12.66 3.53 12.06 2.94C11.46 2.35 10.78 2.03 10 2C10 2 8.98 2 9 2V0L6 3L9 6V4H10C10.27 4.02 10.48 4.11 10.69 4.31C10.9 4.51 10.99 4.73 11 5V11.28C10.41 11.62 10 12.26 10 13C10 14.11 10.89 15 12 15C13.11 15 14 14.11 14 13C14 12.27 13.59 11.62 13 11.28ZM12 14.2C11.34 14.2 10.8 13.65 10.8 13C10.8 12.35 11.35 11.8 12 11.8C12.65 11.8 13.2 12.35 13.2 13C13.2 13.65 12.65 14.2 12 14.2Z" fill="#1B1F23"/>
</svg>
