<svg width="10" height="16" viewBox="0 0 10 16" fill="none" xmlns="http://www.w3.org/2000/svg">
<path fill-rule="evenodd" clip-rule="evenodd" d="M10 5C10 3.89 9.11 3 8 3C6.89 3 6 3.89 6 5C6 5.73 6.41 6.38 7 6.72V7.02C6.98 7.54 6.77 8 6.37 8.4C5.97 8.8 5.51 9.01 4.99 9.03C4.16 9.05 3.51 9.19 2.99 9.48V4.72C3.58 4.38 3.99 3.74 3.99 3C3.99 1.89 3.1 1 1.99 1C0.88 1 0 1.89 0 3C0 3.73 0.41 4.38 1 4.72V11.28C0.41 11.63 0 12.27 0 13C0 14.11 0.89 15 2 15C3.11 15 4 14.11 4 13C4 12.47 3.8 12 3.47 11.64C3.56 11.58 3.95 11.23 4.06 11.17C4.31 11.06 4.62 11 5 11C6.05 10.95 6.95 10.55 7.75 9.75C8.55 8.95 8.95 7.77 9 6.73H8.98C9.59 6.37 10 5.73 10 5ZM1.99999 1.8C2.65999 1.8 3.19999 2.35 3.19999 3C3.19999 3.65 2.64999 4.2 1.99999 4.2C1.34999 4.2 0.799988 3.65 0.799988 3C0.799988 2.35 1.34999 1.8 1.99999 1.8ZM1.99999 14.21C1.33999 14.21 0.799988 13.66 0.799988 13.01C0.799988 12.36 1.34999 11.81 1.99999 11.81C2.64999 11.81 3.19999 12.36 3.19999 13.01C3.19999 13.66 2.64999 14.21 1.99999 14.21ZM7.99999 6.21C7.33999 6.21 6.79999 5.66 6.79999 5.01C6.79999 4.36 7.34999 3.81 7.99999 3.81C8.64999 3.81 9.19999 4.36 9.19999 5.01C9.19999 5.66 8.64999 6.21 7.99999 6.21Z" fill="#1B1F23"/>
</svg>
