<svg width="12" height="16" viewBox="0 0 12 16" fill="none" xmlns="http://www.w3.org/2000/svg">
<path fill-rule="evenodd" clip-rule="evenodd" d="M11 11.28C11 9.55 11 5 11 5C10.97 4.22 10.66 3.53 10.06 2.94C9.46 2.35 8.78 2.03 8 2C8 2 6.98 2 7 2V0L4 3L7 6V4H8C8.27 4.02 8.48 4.11 8.69 4.31C8.9 4.51 8.99 4.73 9 5V11.28C8.41 11.62 8 12.26 8 13C8 14.11 8.89 15 10 15C11.11 15 12 14.11 12 13C12 12.27 11.59 11.62 11 11.28ZM9.99999 14.2C9.33999 14.2 8.79999 13.65 8.79999 13C8.79999 12.35 9.34999 11.8 9.99999 11.8C10.65 11.8 11.2 12.35 11.2 13C11.2 13.65 10.65 14.2 9.99999 14.2ZM4 3C4 1.89 3.11 1 2 1C0.89 1 0 1.89 0 3C0 3.73 0.41 4.38 1 4.72C1 6.27 1 10.28 1 11.28C0.41 11.62 0 12.26 0 13C0 14.11 0.89 15 2 15C3.11 15 4 14.11 4 13C4 12.27 3.59 11.62 3 11.28V4.72C3.59 4.38 4 3.74 4 3ZM3.19999 13C3.19999 13.66 2.64999 14.2 1.99999 14.2C1.34999 14.2 0.799988 13.65 0.799988 13C0.799988 12.35 1.34999 11.8 1.99999 11.8C2.64999 11.8 3.19999 12.35 3.19999 13ZM1.99999 4.2C1.33999 4.2 0.799988 3.65 0.799988 3C0.799988 2.35 1.34999 1.8 1.99999 1.8C2.64999 1.8 3.19999 2.35 3.19999 3C3.19999 3.65 2.64999 4.2 1.99999 4.2Z" fill="#1B1F23"/>
</svg>
