<svg width="14" height="16" viewBox="0 0 14 16" fill="none" xmlns="http://www.w3.org/2000/svg">
<path fill-rule="evenodd" clip-rule="evenodd" d="M3 6C2.45 6 2 6.45 2 7V9C2 9.55 2.45 10 3 10H11C11.55 10 12 9.55 12 9V7C12 6.45 11.55 6 11 6H3ZM11 7.75L9.75 9H8.25L7 7.75L5.75 9H4.25L3 7.75V7H3.75L5 8.25L6.25 7H7.75L9 8.25L10.25 7H11V7.75ZM5 11H9V12H5V11ZM7 2C3.14 2 0 4.91 0 8.5V13C0 13.55 0.45 14 1 14H13C13.55 14 14 13.55 14 13V8.5C14 4.91 10.86 2 7 2ZM13 13H1V8.5C1 5.41 3.64 2.91 7 2.91C10.36 2.91 13 5.41 13 8.5V13Z" fill="#1B1F23"/>
</svg>
