<svg width="14" height="16" viewBox="0 0 14 16" fill="none" xmlns="http://www.w3.org/2000/svg">
<path fill-rule="evenodd" clip-rule="evenodd" d="M8 9H6V4H8V9ZM6 12H8V10H6V12ZM12.33 10H10L11.5 11.5C10.45 12.83 8.83 13.7 7 13.7C3.86 13.7 1.3 11.14 1.3 8C1.3 7.66 1.33 7.33 1.39 7H0.08C0.03 7.33 0 7.66 0 8C0 11.86 3.14 15 7 15C9.19 15 11.13 13.98 12.41 12.41L14 14V10H12.33ZM1.67 6H4L2.5 4.5C3.55 3.17 5.17 2.3 7 2.3C10.14 2.3 12.7 4.86 12.7 8C12.7 8.34 12.67 8.67 12.61 9H13.92C13.97 8.67 14 8.34 14 8C14 4.14 10.86 1 7 1C4.81 1 2.87 2.02 1.59 3.59L0 2V6H1.67Z" fill="#1B1F23"/>
</svg>
