<svg width="14" height="16" viewBox="0 0 14 16" fill="none" xmlns="http://www.w3.org/2000/svg">
<path fill-rule="evenodd" clip-rule="evenodd" d="M4.5 6L4 6.5V11.5L4.5 12H6.5L7 11.5V6.5L6.5 6H4.5ZM6 11H5V7H6V11ZM12.27 3.75C12.05 2.37 11.96 1.12 12 0H9.02C9.02 0.27 8.89 0.48 8.63 0.69C8.38 0.89 8 0.99 7.5 0.99C7 0.99 6.62 0.9 6.37 0.69C6.14 0.49 6.01 0.27 6.01 0H3C3.05 1.13 2.97 2.38 2.75 3.75C2.55 5.13 1.95 5.88 1 6V15C1.02 15.27 1.11 15.48 1.31 15.69C1.51 15.9 1.73 15.99 2 16H13C13.27 15.98 13.48 15.89 13.69 15.69C13.9 15.49 13.99 15.27 14 15V6C13.05 5.87 12.47 5.12 12.25 3.75H12.27ZM13 15H2V7C2.89 6.5 3.48 5.75 3.72 4.75C3.96 3.75 4.03 2.5 4 1H5C4.98 1.78 5.16 2.47 5.52 3.06C5.88 3.64 6.54 3.95 7.52 4C8.5 3.98 9.16 3.67 9.52 3.06C9.88 2.47 10.02 1.78 10 1H11C11.02 2.42 11.13 3.55 11.33 4.38C11.53 5.19 12.02 6.38 13 7.01V15.01V15ZM8.5 6L8 6.5V11.5L8.5 12H10.5L11 11.5V6.5L10.5 6H8.5ZM10 11H9V7H10V11Z" fill="#1B1F23"/>
</svg>
