<svg width="16" height="16" viewBox="0 0 16 16" fill="none" xmlns="http://www.w3.org/2000/svg">
<path fill-rule="evenodd" clip-rule="evenodd" d="M16 12.999C16 13.438 15.55 13.999 15 13.999H7.995C7.456 13.999 7.001 13.552 7 13H1C0.46 13 0 12.439 0 12C0 9.366 3 8 3 8C3 8 3.229 7.591 3 7C2.159 6.379 1.942 6.41 2 4C2.058 1.581 3.367 1 4.5 1C5.633 1 6.942 1.58 7 4C7.058 6.41 6.841 6.379 6 7C5.771 7.59 6 8 6 8C6 8 7.549 8.711 8.42 10.088C9.196 9.369 10 8.999 10 8.999C10 8.999 10.229 8.59 10 7.999C9.159 7.379 8.942 7.409 9 4.999C9.058 2.58 10.367 1.999 11.5 1.999C12.633 1.999 13.937 2.58 13.995 4.999C14.054 7.409 13.837 7.379 12.995 7.999C12.766 8.589 12.995 8.999 12.995 8.999C12.995 8.999 16 10.365 16 12.999Z" fill="#1B1F23"/>
</svg>
