<svg width="16" height="16" viewBox="0 0 16 16" fill="none" xmlns="http://www.w3.org/2000/svg">
<path fill-rule="evenodd" clip-rule="evenodd" d="M4.78999 6.11C5.03999 5.86 5.03999 5.43999 4.78999 5.18999C4.46999 4.86 4.30999 4.43 4.30999 4C4.30999 3.57 4.46999 3.14 4.78999 2.81C5.03999 2.55 5.03999 2.14 4.78999 1.89C4.66999 1.76 4.49999 1.7 4.33999 1.7C4.17999 1.7 4.00999 1.76 3.88999 1.89C3.31999 2.47 3.03999 3.24 3.03999 4C3.03999 4.76 3.32999 5.53 3.88999 6.11C4.13999 6.36 4.54999 6.36 4.78999 6.11ZM2.32999 0.52C2.19999 0.39 2.03999 0.33 1.86999 0.33C1.70999 0.33 1.53999 0.39 1.40999 0.52C0.479994 1.48 0.00999451 2.74 0.00999451 3.99C0.00999451 5.25 0.479994 6.51 1.40999 7.47C1.65999 7.73 2.06999 7.73 2.31999 7.47C2.56999 7.21 2.56999 6.79 2.31999 6.53C1.63999 5.83 1.29999 4.91 1.29999 3.99C1.29999 3.07 1.63999 2.15 2.31999 1.45C2.57999 1.2 2.57999 0.78 2.32999 0.52ZM8.02 5.62C8.92 5.62 9.64 4.89 9.64 4C9.64 3.1 8.91 2.38 8.02 2.38C7.12 2.38 6.4 3.11 6.4 4C6.39 4.89 7.12 5.62 8.02 5.62ZM14.59 0.530005C14.34 0.270005 13.93 0.270005 13.68 0.530005C13.43 0.790005 13.43 1.21 13.68 1.47C14.36 2.17 14.7 3.09 14.7 4.01C14.7 4.93 14.36 5.84001 13.68 6.55001C13.43 6.81001 13.43 7.23001 13.68 7.49001C13.81 7.62001 13.97 7.68 14.14 7.68C14.3 7.68 14.47 7.62001 14.6 7.49001C15.53 6.53001 16 5.27 16 4.01C15.99 2.75 15.52 1.49 14.59 0.530005ZM8.02 6.91999C7.61 6.91999 7.19 6.81999 6.82 6.61999L3.67 14.99H5.16L6.02 13.99H10.02L10.86 14.99H12.35L9.21 6.61999C8.83 6.81999 8.43 6.91999 8.02 6.91999ZM8.01 7.40001L9.02 11H7.02L8.01 7.40001ZM6.02 12.99L7.02 11.99H9.02L10.02 12.99H6.02ZM11.21 1.89C10.96 2.14 10.96 2.56 11.21 2.81C11.53 3.14 11.69 3.57 11.69 4C11.69 4.43 11.53 4.86 11.21 5.19C10.96 5.45 10.96 5.86 11.21 6.11C11.33 6.24 11.5 6.3 11.66 6.3C11.82 6.3 11.98 6.24 12.11 6.11C12.68 5.53 12.96 4.76 12.96 4C12.96 3.24 12.68 2.47 12.11 1.89C11.86 1.64 11.45 1.64 11.21 1.89Z" fill="#1B1F23"/>
</svg>
