<svg width="12" height="16" viewBox="0 0 12 16" fill="none" xmlns="http://www.w3.org/2000/svg">
<path fill-rule="evenodd" clip-rule="evenodd" d="M11 6H1C0.45 6 0 6.45 0 7V9C0 9.55 0.45 10 1 10H11C11.55 10 12 9.55 12 9V7C12 6.45 11.55 6 11 6ZM2 9H1V7H2V9ZM4 9H3V7H4V9ZM6 9H5V7H6V9ZM8 9H7V7H8V9ZM11 1H1C0.45 1 0 1.45 0 2V4C0 4.55 0.45 5 1 5H11C11.55 5 12 4.55 12 4V2C12 1.45 11.55 1 11 1ZM2 4H1V2H2V4ZM4 4H3V2H4V4ZM6 4H5V2H6V4ZM8 4H7V2H8V4ZM11 3H10V2H11V3ZM11 11H1C0.45 11 0 11.45 0 12V14C0 14.55 0.45 15 1 15H11C11.55 15 12 14.55 12 14V12C12 11.45 11.55 11 11 11ZM2 14H1V12H2V14ZM4 14H3V12H4V14ZM6 14H5V12H6V14ZM8 14H7V12H8V14Z" fill="#1B1F23"/>
</svg>
