<svg width="16" height="16" viewBox="0 0 16 16" fill="none" xmlns="http://www.w3.org/2000/svg">
<path fill-rule="evenodd" clip-rule="evenodd" d="M8 0C3.58 0 0 3.58 0 8C0 12.42 3.58 16 8 16C12.42 16 16 12.42 16 8C16 3.58 12.42 0 8 0ZM12.81 12.81C12.18 13.44 11.45 13.92 10.64 14.26C9.81 14.62 8.92 14.79 8 14.79C7.08 14.79 6.19 14.62 5.36 14.26C4.55 13.92 3.81 13.43 3.19 12.81C2.57 12.19 2.08 11.45 1.74 10.64C1.38 9.81 1.21 8.92 1.21 8C1.21 7.08 1.38 6.19 1.74 5.36C2.08 4.55 2.57 3.81 3.19 3.19C3.81 2.57 4.55 2.08 5.36 1.74C6.19 1.38 7.08 1.21 8 1.21C8.92 1.21 9.81 1.38 10.64 1.74C11.45 2.08 12.19 2.57 12.81 3.19C13.43 3.81 13.92 4.55 14.26 5.36C14.62 6.19 14.79 7.08 14.79 8C14.79 8.92 14.62 9.81 14.26 10.64C13.92 11.45 13.43 12.19 12.81 12.81ZM4 6.8V6.21C4 5.55 4.53 5.02 5.2 5.02H5.79C6.45 5.02 6.98 5.55 6.98 6.21V6.8C6.98 7.47 6.45 8 5.79 8H5.2C4.53 8 4 7.47 4 6.8ZM9 6.8V6.21C9 5.55 9.53 5.02 10.2 5.02H10.79C11.45 5.02 11.98 5.55 11.98 6.21V6.8C11.98 7.47 11.45 8 10.79 8H10.2C9.53 8 9 7.47 9 6.8ZM13 10C12.28 11.88 10.09 13 8 13C5.91 13 3.72 11.87 3 10C2.86 9.61 3.23 9 3.66 9H12.25C12.66 9 13.14 9.61 13 10Z" fill="#1B1F23"/>
</svg>
