<svg width="16" height="16" viewBox="0 0 16 16" fill="none" xmlns="http://www.w3.org/2000/svg">
<path fill-rule="evenodd" clip-rule="evenodd" d="M15.98 7.83L15.01 1.88C14.84 0.5 13.13 0 12 0H5.69C5.49 0 5.31 0.05 5.16 0.14L3.72 1H2C0.94 1 0 1.94 0 3V7C0 8.06 0.94 9.02 2 9H4C4.91 9 5.39 9.45 6.39 10.55C7.3 11.55 7.27 12.35 7.02 13.82C6.94 14.32 7.08 14.82 7.44 15.24C7.83 15.71 8.42 16 9 16C10.83 16 12 12.29 12 10.99L11.98 10.01H12H14.02C15.18 10.01 15.97 9.21 16 8.04C16 7.93 15.98 7.83 15.98 7.83ZM14.01 9.02H12.02C11.32 9.02 10.99 9.3 10.99 9.99L11.02 11.02C11.02 12.29 9.85 15.02 9.02 15.02C8.52 15.02 7.94 14.52 8.02 14.02C8.27 12.44 8.36 11.24 7.13 9.88C6.11 8.75 5.36 8 4 8V2L5.67 1H12C12.73 1 13.95 1.31 14 2L14.02 2.02L15.02 8.02C14.99 8.66 14.64 9.02 14.02 9.02H14.01Z" fill="#1B1F23"/>
</svg>
