<svg width="16" height="16" viewBox="0 0 16 16" fill="none" xmlns="http://www.w3.org/2000/svg">
<path fill-rule="evenodd" clip-rule="evenodd" d="M10 8C10 10.7614 7.76142 13 5 13C2.23858 13 0 10.7614 0 8C0 5.23858 2.23858 3 5 3C7.76142 3 10 5.23858 10 8ZM3.5 5.5L7.5 8L3.5 10.5V5.5ZM7.25 12.9441C9.65563 12.5823 11.5 10.5065 11.5 8C11.5 5.49348 9.65563 3.41774 7.25 3.05588C7.49465 3.01907 7.74509 3 8 3C10.7614 3 13 5.23858 13 8C13 10.7614 10.7614 13 8 13C7.74509 13 7.49465 12.9809 7.25 12.9441ZM10.25 12.9441C12.6556 12.5823 14.5 10.5065 14.5 8C14.5 5.49348 12.6556 3.41774 10.25 3.05588C10.4946 3.01907 10.7451 3 11 3C13.7614 3 16 5.23858 16 8C16 10.7614 13.7614 13 11 13C10.7451 13 10.4946 12.9809 10.25 12.9441Z" fill="black"/>
</svg>
