<svg width="16" height="16" viewBox="0 0 16 16" fill="none" xmlns="http://www.w3.org/2000/svg">
<path fill-rule="evenodd" clip-rule="evenodd" d="M3.0001 4.94887C3.60714 4.82498 4.14655 4.48014 4.51375 3.9812C4.88095 3.48226 5.04977 2.86477 4.9875 2.24845C4.92523 1.63212 4.6363 1.06087 4.17671 0.645441C3.71713 0.230011 3.11964 0 2.50008 0C1.88053 0 1.28304 0.230011 0.823455 0.645441C0.363872 1.06087 0.0749368 1.63212 0.0126657 2.24845C-0.0496055 2.86477 0.119224 3.48226 0.486422 3.9812C0.853621 4.48014 1.39303 4.82498 2.00007 4.94887V12.9979C2.00007 13.5448 2.45308 13.9977 3.0001 13.9977H5.05017C5.16493 14.5628 5.47154 15.0708 5.91806 15.4358C6.36458 15.8007 6.92355 16 7.50024 16C8.07694 16 8.6359 15.8007 9.08242 15.4358C9.52894 15.0708 9.83556 14.5628 9.95032 13.9977H11.0504C11.1743 14.6047 11.5192 15.144 12.0182 15.5112C12.5172 15.8783 13.1348 16.0471 13.7512 15.9848C14.3676 15.9226 14.939 15.6337 15.3545 15.1742C15.77 14.7147 16 14.1173 16 13.4978C16 12.8783 15.77 12.2809 15.3545 11.8214C14.939 11.3619 14.3676 11.073 13.7512 11.0108C13.1348 10.9485 12.5172 11.1173 12.0182 11.4845C11.5192 11.8516 11.1743 12.3909 11.0504 12.9979H9.95032C9.83556 12.4328 9.52894 11.9248 9.08242 11.5599C8.6359 11.195 8.07694 10.9956 7.50024 10.9956C6.92355 10.9956 6.36458 11.195 5.91806 11.5599C5.47154 11.9248 5.16493 12.4328 5.05017 12.9979H3.0001V7.99849H5.05017C5.16493 8.56357 5.47154 9.0716 5.91806 9.4365C6.36458 9.80141 6.92355 10.0007 7.50024 10.0007C8.07694 10.0007 8.6359 9.80141 9.08242 9.4365C9.52894 9.0716 9.83556 8.56357 9.95032 7.99849H11.0504C11.1743 8.60544 11.5192 9.14476 12.0182 9.5119C12.5172 9.87904 13.1348 10.0478 13.7512 9.98558C14.3676 9.92332 14.939 9.63443 15.3545 9.17492C15.77 8.71541 16 8.11802 16 7.49855C16 6.87909 15.77 6.2817 15.3545 5.82219C14.939 5.36268 14.3676 5.07379 13.7512 5.01152C13.1348 4.94926 12.5172 5.11807 12.0182 5.48521C11.5192 5.85235 11.1743 6.39167 11.0504 6.99862H9.95032C9.83556 6.43354 9.52894 5.92551 9.08242 5.56061C8.6359 5.1957 8.07694 4.99636 7.50024 4.99636C6.92355 4.99636 6.36458 5.1957 5.91806 5.56061C5.47154 5.92551 5.16493 6.43354 5.05017 6.99862H3.0001V4.94887ZM12.0004 7.49855C12.0004 7.89633 12.1584 8.27781 12.4397 8.55908C12.7211 8.84035 13.1026 8.99837 13.5004 8.99837C13.8983 8.99837 14.2798 8.84035 14.5611 8.55908C14.8424 8.27781 15.0005 7.89633 15.0005 7.49855C15.0005 7.10078 14.8424 6.7193 14.5611 6.43803C14.2798 6.15676 13.8983 5.99874 13.5004 5.99874C13.1026 5.99874 12.7211 6.15676 12.4397 6.43803C12.1584 6.7193 12.0004 7.10078 12.0004 7.49855ZM9.00029 7.49855C9.00029 7.10078 8.84225 6.7193 8.56094 6.43803C8.27962 6.15676 7.89808 5.99874 7.50024 5.99874C7.10241 5.99874 6.72086 6.15676 6.43955 6.43803C6.15824 6.7193 6.0002 7.10078 6.0002 7.49855C6.0002 7.89633 6.15824 8.27781 6.43955 8.55908C6.72086 8.84035 7.10241 8.99837 7.50024 8.99837C7.89808 8.99837 8.27962 8.84035 8.56094 8.55908C8.84225 8.27781 9.00029 7.89633 9.00029 7.49855ZM13.5004 14.9976C13.1026 14.9976 12.7211 14.8396 12.4397 14.5583C12.1584 14.2771 12.0004 13.8956 12.0004 13.4978C12.0004 13.1 12.1584 12.7185 12.4397 12.4373C12.7211 12.156 13.1026 11.998 13.5004 11.998C13.8983 11.998 14.2798 12.156 14.5611 12.4373C14.8424 12.7185 15.0005 13.1 15.0005 13.4978C15.0005 13.8956 14.8424 14.2771 14.5611 14.5583C14.2798 14.8396 13.8983 14.9976 13.5004 14.9976ZM7.50024 11.998C7.89808 11.998 8.27962 12.156 8.56094 12.4373C8.84225 12.7185 9.00029 13.1 9.00029 13.4978C9.00029 13.8956 8.84225 14.2771 8.56094 14.5583C8.27962 14.8396 7.89808 14.9976 7.50024 14.9976C7.10241 14.9976 6.72086 14.8396 6.43955 14.5583C6.15824 14.2771 6.0002 13.8956 6.0002 13.4978C6.0002 13.1 6.15824 12.7185 6.43955 12.4373C6.72086 12.156 7.10241 11.998 7.50024 11.998Z" fill="black"/>
</svg>
